# xmcd
#
# Track frame offsets:
#	150
#	11495
#	21436
#	33686
#	46575
#	59080
#	71058
#	83189
#	95518
#	108145
#	120666
#
# Disc length: 1796 seconds
#
# Revision: 1
# Processed by: cddbd v1.5.2PL0 Copyright (c) Steve Scherf et al.
# Submitted via: audiograbber 1.83.01
#
DISCID=8f07020b
DTITLE=Chet Atkins - Yestergroovin'
DYEAR=1970
DGENRE=Country
TTITLE0=Steeplechase Lane
TTITLE1=Tennesee Pride
TTITLE2=Rocky Top
TTITLE3=Gotta Travel On
TTITLE4=Cherokee
TTITLE5=Country Champagne
TTITLE6=Liberty
TTITLE7=Inka Dinka Doo
TTITLE8=Bring Me Sunshine
TTITLE9=Yestergroovin'
TTITLE10=How High the Moon
EXTD=
EXTT0=
EXTT1=
EXTT2=
EXTT3=
EXTT4=
EXTT5=
EXTT6=
EXTT7=
EXTT8=
EXTT9=
EXTT10=
PLAYORDER=
